<svg width="148" height="44" viewBox="0 0 148 44" fill="none" xmlns="http://www.w3.org/2000/svg">
<path d="M142.351 43.1855H5.47504C2.46514 43.1855 0 40.755 0 37.7874V5.39855C0 2.43092 2.46514 0.000411389 5.47504 0.000411389H142.351C145.361 0.000411389 147.826 2.43092 147.826 5.39855V37.7874C147.826 40.755 145.361 43.1855 142.351 43.1855Z" fill="black"/>
<path d="M142.351 0.865463C144.886 0.865463 146.949 2.89921 146.949 5.39855V37.7874C146.949 40.2867 144.886 42.3205 142.351 42.3205H5.47504C2.9401 42.3205 0.877375 40.2867 0.877375 37.7874V5.39855C0.877375 2.89921 2.9401 0.865463 5.47504 0.865463H142.351ZM142.351 0.000411389H5.47504C2.46514 0.000411389 0 2.43092 0 5.39855V37.7874C0 40.755 2.46514 43.1855 5.47504 43.1855H142.351C145.361 43.1855 147.826 40.755 147.826 37.7874V5.39855C147.826 2.43092 145.361 0.000411389 142.351 0.000411389Z" fill="#A6A6A6"/>
<path d="M74.6082 23.4846C72.0363 23.4846 69.9352 25.4144 69.9352 28.0771C69.9352 30.7181 72.0363 32.6682 74.6082 32.6682C77.1856 32.6682 79.2866 30.7181 79.2866 28.0771C79.2866 25.4144 77.1856 23.4846 74.6082 23.4846ZM74.6082 30.8598C73.197 30.8598 71.9829 29.7114 71.9829 28.0771C71.9829 26.4212 73.197 25.293 74.6082 25.293C76.0194 25.293 77.2389 26.4212 77.2389 28.0771C77.2389 29.7114 76.0194 30.8598 74.6082 30.8598ZM64.4123 23.4846C61.8349 23.4846 59.7394 25.4144 59.7394 28.0771C59.7394 30.7181 61.8349 32.6682 64.4123 32.6682C66.9883 32.6682 69.0852 30.7181 69.0852 28.0771C69.0852 25.4144 66.9883 23.4846 64.4123 23.4846ZM64.4123 30.8598C62.9997 30.8598 61.7815 29.7114 61.7815 28.0771C61.7815 26.4212 62.9997 25.293 64.4123 25.293C65.8235 25.293 67.0376 26.4212 67.0376 28.0771C67.0376 29.7114 65.8235 30.8598 64.4123 30.8598ZM52.2796 24.8922V26.8436H57.0059C56.8677 27.934 56.4981 28.7356 55.9315 29.2943C55.2416 29.9691 54.1671 30.7181 52.2796 30.7181C49.371 30.7181 47.0934 28.4037 47.0934 25.5359C47.0934 22.6681 49.371 20.3537 52.2796 20.3537C53.8523 20.3537 54.9966 20.9596 55.8411 21.7451L57.2359 20.3699C56.0547 19.2579 54.4833 18.4036 52.2796 18.4036C48.2911 18.4036 44.939 21.6033 44.939 25.5359C44.939 29.4684 48.2911 32.6682 52.2796 32.6682C54.4354 32.6682 56.0547 31.9718 57.3276 30.6655C58.632 29.3794 59.0386 27.571 59.0386 26.1108C59.0386 25.6574 59.0002 25.2403 58.9318 24.8922H52.2796ZM101.892 26.405C101.507 25.378 100.32 23.4846 97.9031 23.4846C95.5078 23.4846 93.5135 25.3456 93.5135 28.0771C93.5135 30.6493 95.4872 32.6682 98.1331 32.6682C100.272 32.6682 101.507 31.3821 102.015 30.6331L100.427 29.5899C99.8974 30.3537 99.176 30.8598 98.1331 30.8598C97.0969 30.8598 96.3537 30.3915 95.8773 29.4684L102.107 26.9273L101.892 26.405ZM95.5406 27.934C95.4872 26.1634 96.9354 25.2565 97.9729 25.2565C98.786 25.2565 99.4758 25.6574 99.7058 26.2309L95.5406 27.934ZM90.4776 32.3888H92.5252V18.8935H90.4776V32.3888ZM87.1241 24.5075H87.0557C86.5958 23.9704 85.7184 23.4846 84.607 23.4846C82.2746 23.4846 80.1421 25.5035 80.1421 28.0919C80.1421 30.6655 82.2746 32.6682 84.607 32.6682C85.7184 32.6682 86.5958 32.1783 87.0557 31.625H87.1241V32.2836C87.1241 34.0393 86.1728 34.9826 84.6385 34.9826C83.3874 34.9826 82.6113 34.0919 82.291 33.343L80.5103 34.0758C81.0236 35.293 82.3827 36.791 84.6385 36.791C87.0393 36.791 89.065 35.3983 89.065 32.0096V23.764H87.1241V24.5075ZM84.7822 30.8598C83.371 30.8598 82.1897 29.6952 82.1897 28.0919C82.1897 26.4738 83.371 25.293 84.7822 25.293C86.1728 25.293 87.2692 26.4738 87.2692 28.0919C87.2692 29.6952 86.1728 30.8598 84.7822 30.8598ZM111.478 18.8935H106.581V32.3888H108.623V27.2754H111.478C113.746 27.2754 115.971 25.6574 115.971 23.0838C115.971 20.5116 113.741 18.8935 111.478 18.8935ZM111.532 25.3982H108.623V20.7707H111.532C113.057 20.7707 113.927 22.019 113.927 23.0838C113.927 24.1283 113.057 25.3982 111.532 25.3982ZM124.156 23.459C122.68 23.459 121.146 24.1013 120.515 25.5251L122.327 26.2741C122.717 25.5251 123.435 25.2822 124.193 25.2822C125.252 25.2822 126.327 25.9097 126.343 27.0177V27.1594C125.974 26.9489 125.182 26.6371 124.209 26.6371C122.257 26.6371 120.269 27.6965 120.269 29.6736C120.269 31.4819 121.867 32.6466 123.665 32.6466C125.039 32.6466 125.797 32.0353 126.273 31.324H126.343V32.3672H128.316V27.1904C128.316 24.7977 126.503 23.459 124.156 23.459ZM123.91 30.8544C123.242 30.8544 122.311 30.5278 122.311 29.7114C122.311 28.6668 123.472 28.266 124.476 28.266C125.375 28.266 125.797 28.4617 126.343 28.7194C126.183 29.9691 125.092 30.8544 123.91 30.8544ZM135.502 23.7545L133.154 29.6047H133.084L130.658 23.7545H128.455L132.102 31.93L130.021 36.4793H132.155L137.774 23.7545H135.502ZM117.093 32.3888H119.141V18.8935H117.093V32.3888Z" fill="white"/>
<path d="M11.4265 8.13968C11.1049 8.47167 10.9187 8.98854 10.9187 9.65791V33.5339C10.9187 34.2033 11.1049 34.7201 11.4265 35.0521L11.5059 35.125L25.0758 21.7511V21.4353L11.5059 8.06141L11.4265 8.13968Z" fill="url(#paint0_linear_2778_40273)"/>
<path d="M29.5937 26.209L25.0754 21.7488V21.433L29.5992 16.9728L29.7005 17.0308L35.0578 20.0362C36.5867 20.8891 36.5867 22.2926 35.0578 23.1509L29.7005 26.151L29.5937 26.209Z" fill="url(#paint1_linear_2778_40273)"/>
<path d="M29.7006 26.1498L25.0755 21.5898L11.4263 35.0487C11.9341 35.575 12.7622 35.6384 13.7039 35.1121L29.7006 26.1498Z" fill="url(#paint2_linear_2778_40273)"/>
<path d="M29.7008 17.0337L13.7041 8.07141C12.7624 7.55048 11.9343 7.61391 11.4265 8.14023L25.0758 21.5938L29.7008 17.0337Z" fill="url(#paint3_linear_2778_40273)"/>
<path d="M45.0254 13.5894V11.6516H45.371C45.4887 11.5526 45.5988 11.4118 45.7012 11.2292C45.8036 11.0466 45.8906 10.8 45.9623 10.4894C46.034 10.1788 46.0835 9.78033 46.1108 9.29396L46.2336 7.07968H49.4667V11.6516H50.0606V13.5817H49.3029V12.3223H45.7831V13.5894H45.0254ZM46.3027 11.6516H48.709V7.7606H46.9504L46.8685 9.29396C46.8463 9.66428 46.8096 9.99706 46.7584 10.2923C46.7089 10.5875 46.6449 10.8486 46.5664 11.0756C46.4896 11.3009 46.4017 11.4929 46.3027 11.6516ZM52.5219 12.4016C52.1533 12.4016 51.8316 12.3171 51.5569 12.1482C51.2821 11.9792 51.0688 11.7429 50.9169 11.4391C50.765 11.1353 50.6891 10.7804 50.6891 10.3742C50.6891 9.96635 50.765 9.60967 50.9169 9.3042C51.0688 8.99872 51.2821 8.76151 51.5569 8.59256C51.8316 8.42361 52.1533 8.33913 52.5219 8.33913C52.8905 8.33913 53.2122 8.42361 53.487 8.59256C53.7617 8.76151 53.9751 8.99872 54.1269 9.3042C54.2788 9.60967 54.3548 9.96635 54.3548 10.3742C54.3548 10.7804 54.2788 11.1353 54.1269 11.4391C53.9751 11.7429 53.7617 11.9792 53.487 12.1482C53.2122 12.3171 52.8905 12.4016 52.5219 12.4016ZM52.5245 11.7591C52.7634 11.7591 52.9614 11.696 53.1184 11.5697C53.2754 11.4434 53.3914 11.2753 53.4665 11.0654C53.5433 10.8555 53.5817 10.6242 53.5817 10.3717C53.5817 10.1208 53.5433 9.8904 53.4665 9.6805C53.3914 9.46888 53.2754 9.29908 53.1184 9.17108C52.9614 9.04309 52.7634 8.9791 52.5245 8.9791C52.2838 8.9791 52.0842 9.04309 51.9255 9.17108C51.7685 9.29908 51.6516 9.46888 51.5748 9.6805C51.4997 9.8904 51.4621 10.1208 51.4621 10.3717C51.4621 10.6242 51.4997 10.8555 51.5748 11.0654C51.6516 11.2753 51.7685 11.4434 51.9255 11.5697C52.0842 11.696 52.2838 11.7591 52.5245 11.7591ZM56.8653 12.4016C56.4848 12.4016 56.1571 12.3154 55.8824 12.1431C55.6093 11.969 55.3994 11.7292 55.2526 11.4238C55.1059 11.1183 55.0325 10.7684 55.0325 10.3742C55.0325 9.97488 55.1076 9.62247 55.2578 9.317C55.4079 9.00981 55.6196 8.77004 55.8926 8.59768C56.1657 8.42531 56.4873 8.33913 56.8577 8.33913C57.1563 8.33913 57.4225 8.3946 57.6563 8.50552C57.8901 8.61474 58.0787 8.76833 58.2221 8.9663C58.3671 9.16426 58.4533 9.3955 58.4806 9.66002H57.7357C57.6947 9.47571 57.6009 9.317 57.4541 9.18388C57.3091 9.05077 57.1145 8.98422 56.8705 8.98422C56.6571 8.98422 56.4703 9.04053 56.3099 9.15317C56.1511 9.26409 56.0274 9.4228 55.9387 9.6293C55.8499 9.83409 55.8056 10.0764 55.8056 10.3563C55.8056 10.643 55.8491 10.8905 55.9361 11.0987C56.0232 11.3069 56.146 11.4681 56.3047 11.5825C56.4652 11.6968 56.6537 11.754 56.8705 11.754C57.0155 11.754 57.1469 11.7275 57.2647 11.6746C57.3841 11.62 57.484 11.5424 57.5642 11.4417C57.6461 11.341 57.7033 11.2198 57.7357 11.0782H58.4806C58.4533 11.3325 58.3705 11.5594 58.2323 11.7591C58.0941 11.9588 57.9089 12.1158 57.6768 12.2301C57.4464 12.3445 57.1759 12.4016 56.8653 12.4016ZM59.0015 9.05077V8.39033H62.3191V9.05077H61.0366V12.3223H60.2892V9.05077H59.0015ZM63.6125 13.7967C63.4981 13.7967 63.394 13.7874 63.3002 13.7686C63.2063 13.7515 63.1364 13.7327 63.0903 13.7123L63.2746 13.0851C63.4145 13.1226 63.5391 13.1389 63.6483 13.1337C63.7575 13.1286 63.854 13.0877 63.9376 13.0109C64.0229 12.9341 64.098 12.8086 64.1629 12.6346L64.2576 12.3735L62.8189 8.39033H63.6381L64.6339 11.4417H64.6748L65.6706 8.39033H66.4923L64.8719 12.847C64.7968 13.0518 64.7013 13.225 64.5852 13.3667C64.4692 13.51 64.331 13.6176 64.1705 13.6892C64.0101 13.7609 63.8241 13.7967 63.6125 13.7967ZM67.2116 12.3223V8.39033H70.4191V12.3223H69.6691V9.05077H67.9566V12.3223H67.2116ZM74.1072 10.0261V10.6891H71.9775V10.0261H74.1072ZM72.1925 8.39033V12.3223H71.4424V8.39033H72.1925ZM74.6423 8.39033V12.3223H73.8948V8.39033H74.6423ZM77.3224 12.4016C76.9538 12.4016 76.6321 12.3171 76.3574 12.1482C76.0826 11.9792 75.8693 11.7429 75.7174 11.4391C75.5655 11.1353 75.4896 10.7804 75.4896 10.3742C75.4896 9.96635 75.5655 9.60967 75.7174 9.3042C75.8693 8.99872 76.0826 8.76151 76.3574 8.59256C76.6321 8.42361 76.9538 8.33913 77.3224 8.33913C77.691 8.33913 78.0127 8.42361 78.2875 8.59256C78.5623 8.76151 78.7756 8.99872 78.9275 9.3042C79.0793 9.60967 79.1553 9.96635 79.1553 10.3742C79.1553 10.7804 79.0793 11.1353 78.9275 11.4391C78.7756 11.7429 78.5623 11.9792 78.2875 12.1482C78.0127 12.3171 77.691 12.4016 77.3224 12.4016ZM77.325 11.7591C77.5639 11.7591 77.7619 11.696 77.9189 11.5697C78.0759 11.4434 78.1919 11.2753 78.267 11.0654C78.3438 10.8555 78.3822 10.6242 78.3822 10.3717C78.3822 10.1208 78.3438 9.8904 78.267 9.6805C78.1919 9.46888 78.0759 9.29908 77.9189 9.17108C77.7619 9.04309 77.5639 8.9791 77.325 8.9791C77.0844 8.9791 76.8847 9.04309 76.726 9.17108C76.569 9.29908 76.4521 9.46888 76.3753 9.6805C76.3002 9.8904 76.2626 10.1208 76.2626 10.3717C76.2626 10.6242 76.3002 10.8555 76.3753 11.0654C76.4521 11.2753 76.569 11.4434 76.726 11.5697C76.8847 11.696 77.0844 11.7591 77.325 11.7591ZM81.9174 12.3223V8.39033H83.548C83.9917 8.39033 84.3433 8.48504 84.6027 8.67447C84.8621 8.8622 84.9918 9.11733 84.9918 9.43987C84.9918 9.67026 84.9184 9.85286 84.7716 9.98768C84.6248 10.1225 84.4303 10.2129 84.188 10.259C84.3637 10.2795 84.525 10.3324 84.6718 10.4177C84.8185 10.5014 84.9363 10.614 85.025 10.7556C85.1155 10.8973 85.1607 11.0662 85.1607 11.2625C85.1607 11.4707 85.1069 11.655 84.9994 11.8154C84.8919 11.9741 84.7358 12.0987 84.531 12.1892C84.3279 12.2779 84.083 12.3223 83.7963 12.3223H81.9174ZM82.6367 11.6823H83.7963C83.9857 11.6823 84.1342 11.6371 84.2417 11.5466C84.3492 11.4562 84.403 11.3333 84.403 11.178C84.403 10.9954 84.3492 10.8521 84.2417 10.748C84.1342 10.6421 83.9857 10.5892 83.7963 10.5892H82.6367V11.6823ZM82.6367 10.0286H83.5557C83.699 10.0286 83.8219 10.0082 83.9243 9.9672C84.0284 9.92624 84.1077 9.86822 84.1624 9.79313C84.2187 9.71633 84.2468 9.62589 84.2468 9.52178C84.2468 9.3699 84.1845 9.25129 84.06 9.16596C83.9354 9.08064 83.7647 9.03797 83.548 9.03797H82.6367V10.0286Z" fill="white"/>
<defs>
<linearGradient id="paint0_linear_2778_40273" x1="23.8709" y1="33.7825" x2="5.75399" y2="15.4075" gradientUnits="userSpaceOnUse">
<stop stop-color="#00A0FF"/>
<stop offset="0.0066" stop-color="#00A1FF"/>
<stop offset="0.2601" stop-color="#00BEFF"/>
<stop offset="0.5122" stop-color="#00D2FF"/>
<stop offset="0.7604" stop-color="#00DFFF"/>
<stop offset="1" stop-color="#00E3FF"/>
</linearGradient>
<linearGradient id="paint1_linear_2778_40273" x1="37.0487" y1="21.5894" x2="10.5529" y2="21.5894" gradientUnits="userSpaceOnUse">
<stop stop-color="#FFE000"/>
<stop offset="0.4087" stop-color="#FFBD00"/>
<stop offset="0.7754" stop-color="#FFA500"/>
<stop offset="1" stop-color="#FF9C00"/>
</linearGradient>
<linearGradient id="paint2_linear_2778_40273" x1="27.1856" y1="19.1108" x2="2.61757" y2="-5.80719" gradientUnits="userSpaceOnUse">
<stop stop-color="#FF3A44"/>
<stop offset="1" stop-color="#C31162"/>
</linearGradient>
<linearGradient id="paint3_linear_2778_40273" x1="7.99071" y1="42.9961" x2="18.9614" y2="31.8692" gradientUnits="userSpaceOnUse">
<stop stop-color="#32A071"/>
<stop offset="0.0685" stop-color="#2DA771"/>
<stop offset="0.4762" stop-color="#15CF74"/>
<stop offset="0.8009" stop-color="#06E775"/>
<stop offset="1" stop-color="#00F076"/>
</linearGradient>
</defs>
</svg>
