<svg width="206" height="31" viewBox="0 0 206 31" fill="none" xmlns="http://www.w3.org/2000/svg">
<g clip-path="url(#clip0_2711_21)">
<path fill-rule="evenodd" clip-rule="evenodd" d="M44.4479 14.5139C43.4886 14.5971 42.3393 14.8852 41.2941 15.5609C39.7429 16.5638 35.2451 20.904 37.4157 22.7833C38.1262 23.399 39.886 23.4725 41.8201 23.2717C46.116 22.8259 47.0101 22.0425 48.6414 21.2311C50.1343 20.4886 50.7867 22.542 49.7766 23.2845C46.0356 26.0351 34.5358 27.3999 33.2705 23.3315C32.6696 21.3991 33.8229 19.6537 35.162 17.9972C37.0878 15.6149 39.8438 13.5581 42.0744 12.5974C43.8726 11.8229 46.7105 11.7331 48.2468 12.6569C49.562 13.4477 49.3611 14.444 48.8194 15.0792C47.7674 16.3127 46.7846 14.3113 44.4479 14.5139V14.5139Z" fill="#E40613"/>
<path fill-rule="evenodd" clip-rule="evenodd" d="M60.2436 18.0819C62.117 18.6855 63.4541 20.2885 62.2771 22.3229C60.2162 25.8846 55.0812 26.4572 52.8464 24.739C51.7986 23.9335 51.2049 22.4946 52.1994 20.8609C53.6221 18.5235 57.595 17.2288 60.2437 18.0819H60.2436ZM58.4484 20.2692C60.5465 21.0349 59.4189 23.2705 57.2669 23.4986C56.5783 23.5715 55.7428 23.4384 55.3306 23.1216C54.581 22.5457 54.6302 21.7329 55.2058 21.1057C55.8996 20.35 57.315 19.8556 58.4484 20.2692H58.4484Z" fill="#E40613"/>
<path fill-rule="evenodd" clip-rule="evenodd" d="M70.4237 13.2722C71.5587 13.9188 72.5105 13.4804 72.7253 13.0591C72.9865 12.5467 72.7231 11.3726 71.9563 11.0419C70.8237 10.5534 69.222 11.1503 68.3393 11.8287C66.5275 13.2212 65.9632 15.0354 65.9632 17.7741C65.9632 18.4639 64.8427 18.0263 64.29 18.3806C63.6167 18.812 63.7957 19.4973 64.009 19.7875C64.2391 20.1007 64.6807 20.1457 65.1122 20.215C65.7362 20.3151 65.618 20.4789 65.5478 21.2878C65.368 23.3574 64.9577 27.9929 65.134 30.0071C65.1831 30.5691 65.4926 30.8451 65.6117 30.895C65.8605 30.9992 66.3593 31.0739 66.7592 30.8809C67.7861 30.3854 67.8742 28.1582 68.006 25.7688C68.1101 23.8812 68.2654 21.8011 68.3248 20.8738C68.4162 19.4455 71.6267 20.9058 71.6717 19.0909C71.6999 17.9596 68.9158 18.5249 68.7897 18.0764C68.4632 16.9154 68.986 12.4533 70.4237 13.2722Z" fill="#E40613"/>
<path fill-rule="evenodd" clip-rule="evenodd" d="M78.202 13.2722C79.337 13.9188 80.2889 13.4804 80.5037 13.0591C80.7648 12.5467 80.5015 11.3726 79.7346 11.0419C78.602 10.5534 77.0004 11.1503 76.1176 11.8287C74.3058 13.2212 73.7415 15.0354 73.7415 17.7741C73.7415 18.4639 72.621 18.0263 72.0683 18.3806C71.3951 18.812 71.574 19.4973 71.7873 19.7875C72.0174 20.1007 72.459 20.1457 72.8906 20.215C73.5146 20.3151 73.3963 20.4789 73.3261 21.2878C73.1463 23.3574 72.736 27.9929 72.9124 30.0071C72.9614 30.5691 73.2709 30.8451 73.3901 30.895C73.6388 30.9992 74.1376 31.0739 74.5376 30.8809C75.5644 30.3854 75.6525 28.1582 75.7843 25.7688C75.8884 23.8812 76.0437 21.8011 76.1031 20.8738C76.1945 19.4455 79.405 20.9058 79.4501 19.0909C79.4782 17.9596 76.6941 18.5249 76.568 18.0764C76.2415 16.9154 76.7643 12.4533 78.202 13.2722Z" fill="#E40613"/>
<path fill-rule="evenodd" clip-rule="evenodd" d="M82.4973 18.7611C84.1732 17.8578 86.7139 17.5852 87.9876 18.0671C88.6811 18.3293 89.155 19.1697 89.1721 19.9492C89.1867 20.6207 89.1416 21.4605 88.2078 21.774C86.425 22.3726 83.0805 22.3019 82.9041 22.8701C82.8005 23.2039 83.5865 23.2965 84.4655 23.2945C86.3536 23.29 86.9979 23.0348 88.7053 22.7353C89.389 22.6155 89.9385 22.5338 90.2174 22.9006C91.246 24.2534 88.7983 25.223 85.8429 25.4842C82.8781 25.7463 80.1341 25.6654 79.6284 24.032C79.3058 22.9902 79.3823 20.4403 82.4973 18.7611V18.7611ZM86.3863 19.6468C87.0493 20.2345 84.5701 20.8526 83.9941 20.58C83.2474 20.2264 85.8034 19.1299 86.3863 19.6468Z" fill="#E40613"/>
<path fill-rule="evenodd" clip-rule="evenodd" d="M95.4612 18.7611C97.137 17.8578 99.6777 17.5852 100.952 18.0671C101.645 18.3293 102.119 19.1697 102.136 19.9492C102.151 20.6207 102.106 21.4605 101.172 21.774C99.3889 22.3726 96.0444 22.3019 95.8679 22.8701C95.7644 23.2039 96.5504 23.2965 97.4293 23.2945C99.3175 23.29 99.9617 23.0348 101.669 22.7353C102.353 22.6155 102.902 22.5338 103.181 22.9006C104.21 24.2534 101.762 25.223 98.8068 25.4842C95.842 25.7463 93.098 25.6654 92.5922 24.032C92.2696 22.9902 92.3461 20.4403 95.4612 18.7611V18.7611ZM99.3501 19.6468C100.013 20.2345 97.534 20.8526 96.958 20.58C96.2112 20.2264 98.7672 19.1299 99.3501 19.6468Z" fill="#E40613"/>
<path fill-rule="evenodd" clip-rule="evenodd" d="M112.963 18.0819C114.837 18.6855 116.174 20.2885 114.997 22.3229C112.936 25.8846 107.801 26.4572 105.566 24.739C104.518 23.9335 103.924 22.4946 104.919 20.8609C106.342 18.5235 110.314 17.2288 112.963 18.0819H112.963ZM111.168 20.2692C113.266 21.0349 112.138 23.2705 109.986 23.4986C109.298 23.5715 108.462 23.4384 108.05 23.1216C107.3 22.5457 107.35 21.7329 107.925 21.1057C108.619 20.35 110.034 19.8556 111.168 20.2692H111.168Z" fill="#E40613"/>
<path fill-rule="evenodd" clip-rule="evenodd" d="M119.669 24.8374C119.782 24.6561 120.162 23.4234 120.956 22.4452C121.761 21.4521 123.155 20.5402 123.374 21.3785C123.529 21.9735 123.388 24.334 123.952 25.3832C124.132 25.7176 124.538 25.9222 124.741 25.9662C125.418 26.1127 126.333 25.761 126.853 25.2497C127.177 24.9304 127.283 24.4312 127.279 24.3131C127.275 24.1866 126.737 23.8489 126.554 23.2437C126.337 22.5265 126.284 21.314 126.127 20.4701C125.935 19.4397 125.635 18.9445 124.951 18.691C124.34 18.4648 123.387 18.3977 122.486 18.8495C121.783 19.2014 120.671 20.4237 120.343 19.1985C120.239 18.8097 120.297 18.3549 119.327 18.2729C118.857 18.2333 118.173 18.2391 117.872 18.4549C117.641 18.6196 117.735 19.9336 117.626 21.3767C117.519 22.8003 117.205 24.3534 117.268 24.6555C117.399 25.2917 117.852 25.4103 118.341 25.4389C118.697 25.4597 119.215 25.5662 119.669 24.8375L119.669 24.8374Z" fill="#E40613"/>
<path fill-rule="evenodd" clip-rule="evenodd" d="M191.397 17.4198C193.271 18.0234 194.608 19.6264 193.431 21.6607C191.37 25.2225 186.235 25.795 184 24.0769C182.952 23.2714 182.359 21.8325 183.353 20.1988C184.776 17.8614 188.749 16.5666 191.397 17.4198H191.397ZM189.602 19.6071C191.7 20.3728 190.573 22.6084 188.421 22.8365C187.732 22.9094 186.897 22.7763 186.484 22.4595C185.735 21.8836 185.784 21.0708 186.36 20.4436C187.053 19.6879 188.469 19.1935 189.602 19.6071H189.602Z" fill="#E40613"/>
<path fill-rule="evenodd" clip-rule="evenodd" d="M198.104 24.1734C198.217 23.9921 198.597 22.7594 199.391 21.7811C200.196 20.788 201.59 19.8761 201.809 20.7144C201.964 21.3095 201.823 23.6699 202.387 24.7192C202.567 25.0536 202.973 25.2582 203.175 25.3021C203.853 25.4487 204.768 25.097 205.288 24.5857C205.612 24.2663 205.718 23.7671 205.714 23.649C205.71 23.5226 205.171 23.1848 204.988 22.5797C204.772 21.8624 204.719 20.65 204.562 19.806C204.37 18.7757 204.07 18.2804 203.386 18.027C202.775 17.8007 201.822 17.7336 200.92 18.1854C200.218 18.5374 199.105 19.7597 198.778 18.5344C198.674 18.1456 198.731 17.6909 197.762 17.6089C197.292 17.5692 196.608 17.5751 196.306 17.7908C196.076 17.9555 196.17 19.2695 196.061 20.7127C195.954 22.1363 195.64 23.6894 195.702 23.9914C195.834 24.6276 196.287 24.7462 196.776 24.7748C197.132 24.7956 197.65 24.9021 198.104 24.1734L198.104 24.1734Z" fill="#E40613"/>
<path fill-rule="evenodd" clip-rule="evenodd" d="M145.637 15.5247C144.532 15.3426 143.299 14.418 141.417 14.3479C139.985 14.2945 138.031 14.7208 137.358 15.7904C136.249 17.5533 141.051 17.3766 141.895 17.3766C143.508 17.3766 146.255 17.5134 147.147 18.9203C149.356 22.4038 142.336 25.3363 139.741 25.8899C137.211 26.4297 131.742 27.1049 131.033 23.6534C130.815 22.5896 131.715 22.2001 132.265 22.4809C133.393 23.0571 132.795 23.7629 135.565 24.0245C136.88 24.1487 138.311 24.067 140.465 23.5735C143.161 22.9557 145.042 20.9429 142.931 20.1402C141.6 19.634 139.194 20.0412 137.103 19.7261C135.27 19.45 133.705 18.934 133.389 17.6312C133.202 16.8612 133.259 15.7442 134.765 14.4943C136.896 12.7257 140.196 11.9705 142.893 12.0071C144.462 12.0284 146.076 12.4159 147.224 13.3003C148.077 13.9575 147.654 15.8571 145.637 15.5247L145.637 15.5247Z" fill="#E40613"/>
<path fill-rule="evenodd" clip-rule="evenodd" d="M155.649 17.8949C154.715 17.9784 153.842 18.1819 152.646 18.7949C150.726 19.7796 149.354 21.4931 149.218 22.9625C149.164 23.5525 149.309 24.1033 149.697 24.5516C150.689 25.6945 152.52 25.6224 154.197 25.1924C155.903 24.7548 157.451 23.9535 157.603 24.5131C157.819 25.3029 157.846 25.5253 158.32 25.6574C159.086 25.8708 160.382 25.55 160.766 24.7638C161.035 24.2118 160.869 23.6888 160.229 23.5703C159.563 23.4469 160.082 18.9677 159.846 18.5633C159.704 18.3184 159.272 18.2197 158.565 18.3691C158.328 18.4191 158.248 18.6726 158.14 18.6822C157.642 18.7268 158.271 17.661 155.649 17.8949L155.649 17.8949ZM156.711 22.332C155.943 23.0147 153.258 23.878 152.428 23.1944C152.054 22.887 152.224 21.8426 152.874 21.058C153.35 20.4841 154.483 19.813 155.476 19.6629C157.508 19.3555 157.515 21.6169 156.711 22.332H156.711Z" fill="#E40613"/>
<path fill-rule="evenodd" clip-rule="evenodd" d="M164.195 25.1851C163.889 24.9153 163.939 24.5974 163.897 23.9951C163.84 23.1903 163.872 22.0893 163.877 21.07C163.884 19.5174 163.851 18.6798 164.219 18.1813C164.842 17.3369 166.657 17.8202 166.914 18.3417C167.05 18.6187 167.12 19.1549 167.081 20.0675C167.008 21.7703 166.787 24.1217 166.676 24.5461C166.435 25.4653 164.961 25.8607 164.195 25.1851V25.1851Z" fill="#E40613"/>
<path fill-rule="evenodd" clip-rule="evenodd" d="M164.947 16.8522C165.421 17.3589 166.658 17.3395 166.972 17.0251C167.367 16.6295 167.482 14.3457 166.743 14.1331C166.272 13.9973 165.286 13.8814 164.98 14.334C164.474 15.0834 164.929 16.8332 164.947 16.8522H164.947Z" fill="#E40613"/>
<path fill-rule="evenodd" clip-rule="evenodd" d="M169.515 23.5403C169.675 24.305 170.444 24.9231 171.504 25.2108C174.522 26.0307 177.045 23.7209 177.045 24.4642C177.045 25.0556 176.964 25.9754 176.587 26.643C176.201 27.3287 175.511 27.7578 174.874 27.9494C173.657 28.3158 171.94 27.6612 171.764 26.8323C171.332 24.8065 169.103 26.3813 169.287 27.9541C169.569 30.3672 176.751 32.0668 179.364 26.3704C180.148 24.6634 180.765 20.1892 180.423 18.3707C180.346 17.9609 179.422 17.8484 178.691 18.3401C178.285 18.6126 176.731 16.9185 173.671 18.1083C171.21 19.0656 169.062 21.3767 169.515 23.5403V23.5403ZM176.901 21.796C176.134 22.4782 173.74 23.316 172.909 22.6328C172.362 22.1828 172.485 21.577 172.739 21.2012C173.272 20.415 174.875 20.0275 175.587 19.9201C177.619 19.6134 177.705 21.0813 176.901 21.796H176.901Z" fill="#E40613"/>
<path fill-rule="evenodd" clip-rule="evenodd" d="M6.88806 24.0985C9.7879 25.9547 12.9001 26.295 16.1315 25.2912C20.3164 23.9913 21.1835 19.5744 22.5311 16.9595C23.1336 15.7908 24.4112 14.3134 25.9321 15.1892C26.5486 15.5441 26.7932 16.1839 26.6685 16.9944C26.3629 18.979 25.309 19.3694 24.4147 19.2605C24.0626 19.2177 23.644 18.8777 23.2905 18.991C22.9972 19.0848 22.6484 19.5417 23.3244 20.2797C23.7602 20.7557 24.5965 20.9225 25.4501 20.7433C26.7775 20.4647 28.1484 19.3488 28.1256 17.2587C28.1018 15.0794 26.3883 13.4862 24.0792 14.0048C20.0673 14.906 20.7905 21.3702 15.814 23.2835C12.9038 24.4024 9.24554 23.8539 7.06221 22.4113C3.78874 20.2485 3.12709 17.5229 2.54541 14.77C2.24912 19.0118 3.82278 22.1362 6.88808 24.0985H6.88806Z" fill="#E40613"/>
<path fill-rule="evenodd" clip-rule="evenodd" d="M0.292279 23.658C-1.44587 27.4317 4.84864 29.3511 11.745 29.7002C13.4409 29.7859 18.4699 29.6902 22.0667 28.6773C24.1606 28.0877 25.885 27.1967 25.9527 25.8302C26.0233 24.4048 24.9711 23.1604 21.774 22.8281C24.9381 23.8046 24.7221 25.0114 24.2605 25.8101C23.3599 27.3688 18.5683 28.0206 16.1389 28.2366C10.1138 28.7727 2.63 28.0013 0.528296 25.3313C0.150399 24.8513 0.0548458 24.3621 0.292261 23.658L0.292279 23.658Z" fill="#E40613"/>
<path fill-rule="evenodd" clip-rule="evenodd" d="M3.55277 11.4213C3.4797 11.4307 3.24367 11.6782 3.10483 12.0601C2.80165 12.8938 3.13654 13.4513 3.87443 13.9202C6.52625 15.6045 14.6404 16.2294 19.6905 14.6527C23.7959 13.3708 23.1443 11.8479 21.8057 11.0731C20.7761 10.4773 19.2822 10.4034 19.5869 10.7354C19.8493 11.0215 21.9695 12.0912 18.7601 13.5393C15.5648 14.7567 9.69687 14.8052 6.42505 14.093C6.22721 14.05 5.2264 13.8904 4.43101 13.5638C3.72152 13.2724 3.22091 12.8937 3.35106 12.0674C3.40869 11.7025 3.56985 11.4191 3.55276 11.4212L3.55277 11.4213Z" fill="#E40613"/>
<path fill-rule="evenodd" clip-rule="evenodd" d="M19.093 3.68382C19.2659 2.56162 19.1792 1.00518 17.9556 0C18.797 6.58078 11.3699 7.00582 11.373 11.7906C12.1133 11.0612 12.8195 10.1551 13.7586 9.41197C16.0845 7.57186 18.7335 6.01582 19.093 3.68382Z" fill="#E40613"/>
<path fill-rule="evenodd" clip-rule="evenodd" d="M9.25049 9.53268C10.7061 8.22238 11.9704 7.47785 13.2948 6.41661C14.9846 5.06238 15.0873 3.7658 13.9509 1.75781C13.7862 2.81837 14.1322 3.5074 11.9957 5.64518C10.7435 6.78309 9.4602 7.56995 9.25051 9.53268H9.25049Z" fill="#E40613"/>
<path fill-rule="evenodd" clip-rule="evenodd" d="M21.2163 4.35156C19.6413 8.89707 16.0045 8.29962 15.0553 11.3599C15.0316 11.4362 16.1849 10.6316 17.7565 9.71376C19.9558 8.42942 22.3844 7.39734 21.2163 4.35156Z" fill="#E40613"/>
</g>
<defs>
<clipPath id="clip0_2711_21">
<rect width="206" height="31" fill="white"/>
</clipPath>
</defs>
</svg>
