<svg width="29" height="29" viewBox="0 0 29 29" fill="none" xmlns="http://www.w3.org/2000/svg">
<g clip-path="url(#clip0_2778_40276)">
<path d="M28.9697 8.52608C28.9018 6.9852 28.6526 5.92585 28.2957 5.00792C27.9274 4.03356 27.3609 3.16121 26.6187 2.43602C25.8935 1.69955 25.0154 1.12728 24.0523 0.764798C23.1291 0.407848 22.0753 0.158669 20.5344 0.0907312C18.982 0.0170397 18.4892 0 14.5519 0C10.6146 0 10.1218 0.0170397 8.57515 0.0849775C7.03427 0.152915 5.97492 0.402315 5.05721 0.759044C4.08263 1.12728 3.21028 1.6938 2.48509 2.43602C1.74862 3.16121 1.17657 4.03931 0.81387 5.00239C0.45692 5.92585 0.207741 6.97944 0.139803 8.52032C0.066112 10.0727 0.0490723 10.5655 0.0490723 14.5028C0.0490723 18.4401 0.066112 18.9329 0.13405 20.4796C0.201987 22.0205 0.451387 23.0798 0.808337 23.9977C1.17657 24.9721 1.74862 25.8445 2.48509 26.5696C3.21028 27.3061 4.08838 27.8784 5.05146 28.2409C5.97492 28.5978 7.02851 28.847 8.56961 28.9149C10.116 28.9831 10.6091 28.9999 14.5464 28.9999C18.4837 28.9999 18.9765 28.9831 20.5231 28.9149C22.064 28.847 23.1233 28.5978 24.041 28.2409C25.99 27.4874 27.5309 25.9465 28.2844 23.9977C28.6411 23.0743 28.8905 22.0205 28.9585 20.4796C29.0264 18.9329 29.0434 18.4401 29.0434 14.5028C29.0434 10.5655 29.0377 10.0727 28.9697 8.52608ZM26.3582 20.3663C26.2958 21.7826 26.0579 22.5474 25.8597 23.0572C25.3724 24.3206 24.3697 25.3233 23.1063 25.8106C22.5964 26.0089 21.8261 26.2468 20.4153 26.309C18.8857 26.3771 18.427 26.3939 14.5576 26.3939C10.6883 26.3939 10.2238 26.3771 8.69974 26.309C7.28344 26.2468 6.51865 26.0089 6.00878 25.8106C5.38008 25.5782 4.80781 25.21 4.34331 24.7285C3.86177 24.2582 3.49354 23.6917 3.26118 23.063C3.0629 22.5531 2.825 21.7826 2.76282 20.372C2.69466 18.8424 2.67784 18.3835 2.67784 14.5141C2.67784 10.6448 2.69466 10.1803 2.76282 8.65642C2.825 7.24013 3.0629 6.47533 3.26118 5.96547C3.49354 5.33654 3.86177 4.76449 4.34907 4.29977C4.8191 3.81823 5.38561 3.45 6.01454 3.21786C6.5244 3.01958 7.29495 2.78169 8.70549 2.71928C10.2351 2.65134 10.6941 2.6343 14.5632 2.6343C18.4383 2.6343 18.897 2.65134 20.4211 2.71928C21.8374 2.78169 22.6022 3.01958 23.112 3.21786C23.7407 3.45 24.313 3.81823 24.7775 4.29977C25.2591 4.77003 25.6273 5.33654 25.8597 5.96547C26.0579 6.47533 26.2958 7.24566 26.3582 8.65642C26.4262 10.186 26.4432 10.6448 26.4432 14.5141C26.4432 18.3835 26.4262 18.8367 26.3582 20.3663Z" fill="white"/>
<path d="M14.5537 7.05273C10.4409 7.05273 7.104 10.3894 7.104 14.5024C7.104 18.6154 10.4409 21.9521 14.5537 21.9521C18.6667 21.9521 22.0034 18.6154 22.0034 14.5024C22.0034 10.3894 18.6667 7.05273 14.5537 7.05273ZM14.5537 19.3349C11.8855 19.3349 9.72127 17.1708 9.72127 14.5024C9.72127 11.834 11.8855 9.67 14.5537 9.67C17.2221 9.67 19.3861 11.834 19.3861 14.5024C19.3861 17.1708 17.2221 19.3349 14.5537 19.3349Z" fill="white"/>
<path d="M24.0374 6.7587C24.0374 7.71912 23.2587 8.49786 22.298 8.49786C21.3376 8.49786 20.5588 7.71912 20.5588 6.7587C20.5588 5.79805 21.3376 5.01953 22.298 5.01953C23.2587 5.01953 24.0374 5.79805 24.0374 6.7587Z" fill="white"/>
</g>
<defs>
<clipPath id="clip0_2778_40276">
<rect width="29" height="29" fill="white"/>
</clipPath>
</defs>
</svg>
