<svg width="148" height="44" viewBox="0 0 148 44" fill="none" xmlns="http://www.w3.org/2000/svg">
<path d="M147.179 38.2064C147.179 40.5078 145.297 42.3719 142.969 42.3719H5.21016C2.8836 42.3719 0.995117 40.5078 0.995117 38.2064V4.9874C0.995117 2.6871 2.8836 0.816406 5.21016 0.816406H142.968C145.297 0.816406 147.178 2.6871 147.178 4.9874L147.179 38.2064Z" fill="black"/>
<path d="M142.525 0.865463C145.06 0.865463 147.123 2.89921 147.123 5.39855V37.7874C147.123 40.2867 145.06 42.3205 142.525 42.3205H5.64887C3.11392 42.3205 1.0512 40.2867 1.0512 37.7874V5.39855C1.0512 2.89921 3.11392 0.865463 5.64887 0.865463H142.525ZM142.525 0.000411389H5.64887C2.63896 0.000411389 0.173828 2.43092 0.173828 5.39855V37.7874C0.173828 40.755 2.63896 43.1855 5.64887 43.1855H142.525C145.535 43.1855 148 40.755 148 37.7874V5.39855C148 2.43092 145.535 0.000411389 142.525 0.000411389Z" fill="#A6A6A6"/>
<path d="M33.1646 21.3583C33.1328 17.8786 36.0543 16.1858 36.1879 16.1069C34.5333 13.7285 31.9688 13.4036 31.0676 13.3776C28.9137 13.1542 26.8245 14.6484 25.7273 14.6484C24.6082 14.6484 22.9186 13.3992 21.0976 13.4359C18.7543 13.4716 16.562 14.8092 15.3597 16.8864C12.8784 21.1218 14.729 27.3459 17.1063 30.7694C18.2954 32.446 19.685 34.3181 21.5038 34.2523C23.2832 34.1799 23.9479 33.1338 26.0952 33.1338C28.2228 33.1338 28.8469 34.2523 30.7019 34.2101C32.6116 34.1799 33.8139 32.5259 34.9615 30.8342C36.3357 28.9124 36.8876 27.0198 36.9095 26.9227C36.8646 26.9075 33.2007 25.5289 33.1646 21.3583Z" fill="white"/>
<path d="M29.6605 11.1255C30.6176 9.9455 31.2724 8.3401 31.0906 6.71094C29.7054 6.7714 27.9731 7.65561 26.9756 8.80974C26.093 9.82675 25.3046 11.4937 25.5083 13.0613C27.0643 13.1758 28.6619 12.2872 29.6605 11.1255Z" fill="white"/>
<path d="M58.9154 34.0122H56.4287L55.0665 29.792H50.3317L49.0341 34.0122H46.613L51.304 19.6445H54.2014L58.9154 34.0122ZM54.6559 28.0214L53.424 24.2697C53.2937 23.8864 53.0495 22.9838 52.6892 21.563H52.6454C52.502 22.1741 52.2709 23.0767 51.9534 24.2697L50.7434 28.0214H54.6559Z" fill="white"/>
<path d="M70.9791 28.7048C70.9791 30.4668 70.4962 31.8595 69.5304 32.8819C68.6653 33.792 67.5911 34.2465 66.3089 34.2465C64.9248 34.2465 63.9305 33.7564 63.325 32.7761H63.2812V38.2336H60.9466V27.0627C60.9466 25.955 60.917 24.8181 60.8601 23.6521H62.9132L63.0436 25.2943H63.0874C63.8659 24.057 65.0474 23.4395 66.633 23.4395C67.8725 23.4395 68.9073 23.922 69.7351 24.8883C70.5652 25.8557 70.9791 27.1275 70.9791 28.7048ZM68.6007 28.789C68.6007 27.7806 68.3708 26.9493 67.9087 26.2951C67.4039 25.6127 66.7261 25.2716 65.8763 25.2716C65.3004 25.2716 64.7769 25.4616 64.3094 25.8362C63.8407 26.2141 63.5341 26.7075 63.3907 27.3186C63.3184 27.6036 63.2823 27.8368 63.2823 28.0203V29.7477C63.2823 30.5013 63.5166 31.1372 63.9853 31.6565C64.4539 32.1758 65.0627 32.4349 65.8117 32.4349C66.691 32.4349 67.3754 32.1002 67.8649 31.433C68.3554 30.7647 68.6007 29.8838 68.6007 28.789Z" fill="white"/>
<path d="M83.0649 28.7048C83.0649 30.4668 82.582 31.8595 81.6151 32.8819C80.7511 33.792 79.6769 34.2465 78.3947 34.2465C77.0106 34.2465 76.0163 33.7564 75.4119 32.7761H75.3681V38.2336H73.0335V27.0627C73.0335 25.955 73.004 24.8181 72.947 23.6521H75.0002L75.1305 25.2943H75.1743C75.9517 24.057 77.1332 23.4395 78.7199 23.4395C79.9584 23.4395 80.9931 23.922 81.8232 24.8883C82.6499 25.8557 83.0649 27.1275 83.0649 28.7048ZM80.6865 28.789C80.6865 27.7806 80.4555 26.9493 79.9934 26.2951C79.4886 25.6127 78.813 25.2716 77.9622 25.2716C77.3851 25.2716 76.8628 25.4616 76.3941 25.8362C75.9254 26.2141 75.6199 26.7075 75.4765 27.3186C75.4053 27.6036 75.3681 27.8368 75.3681 28.0203V29.7477C75.3681 30.5013 75.6024 31.1372 76.0689 31.6565C76.5376 32.1747 77.1464 32.4349 77.8976 32.4349C78.7768 32.4349 79.4612 32.1002 79.9507 31.433C80.4413 30.7647 80.6865 29.8838 80.6865 28.789Z" fill="white"/>
<path d="M96.577 29.9846C96.577 31.2067 96.1467 32.2011 95.2827 32.9687C94.3333 33.8076 93.0117 34.2265 91.3133 34.2265C89.7453 34.2265 88.4882 33.9285 87.5366 33.3314L88.0776 31.4129C89.1025 32.024 90.2271 32.3306 91.4524 32.3306C92.3317 32.3306 93.016 32.1341 93.5077 31.7433C93.9972 31.3525 94.2414 30.8278 94.2414 30.1735C94.2414 29.5905 94.0399 29.0993 93.6358 28.7009C93.2339 28.3025 92.5627 27.9322 91.6254 27.59C89.074 26.6518 87.7994 25.2774 87.7994 23.4701C87.7994 22.289 88.2462 21.3206 89.1408 20.567C90.0321 19.8123 91.2213 19.4355 92.7083 19.4355C94.0344 19.4355 95.136 19.6633 96.0153 20.1179L95.4316 21.9943C94.6104 21.5538 93.6818 21.3335 92.6426 21.3335C91.8214 21.3335 91.1797 21.5333 90.7198 21.9306C90.3311 22.2858 90.1362 22.7187 90.1362 23.2315C90.1362 23.7994 90.3585 24.269 90.8052 24.6383C91.1939 24.9794 91.9002 25.3487 92.9252 25.7471C94.1789 26.2448 95.0998 26.8267 95.6922 27.4939C96.2825 28.1589 96.577 28.9913 96.577 29.9846Z" fill="white"/>
<path d="M104.296 25.3791H101.723V30.4091C101.723 31.6885 102.176 32.3276 103.085 32.3276C103.502 32.3276 103.848 32.292 104.122 32.2207L104.186 33.9686C103.727 34.1381 103.121 34.2234 102.371 34.2234C101.449 34.2234 100.728 33.946 100.208 33.3921C99.6904 32.8372 99.4297 31.9065 99.4297 30.5991V25.377H97.8967V23.6495H99.4297V21.7526L101.723 21.0703V23.6495H104.296V25.3791Z" fill="white"/>
<path d="M115.906 28.7478C115.906 30.3402 115.444 31.6477 114.522 32.6701C113.555 33.7227 112.272 34.2474 110.672 34.2474C109.131 34.2474 107.903 33.7432 106.988 32.7348C106.072 31.7265 105.615 30.4536 105.615 28.9194C105.615 27.314 106.085 25.999 107.03 24.9766C107.973 23.9532 109.246 23.4414 110.845 23.4414C112.387 23.4414 113.628 23.9456 114.564 24.955C115.46 25.9343 115.906 27.1985 115.906 28.7478ZM113.484 28.8223C113.484 27.8668 113.277 27.0474 112.858 26.364C112.369 25.537 111.669 25.1245 110.762 25.1245C109.824 25.1245 109.111 25.538 108.621 26.364C108.202 27.0484 107.995 27.8808 107.995 28.8655C107.995 29.8209 108.202 30.6404 108.621 31.3227C109.126 32.1497 109.831 32.5621 110.741 32.5621C111.633 32.5621 112.332 32.1411 112.837 31.3011C113.268 30.6047 113.484 29.7767 113.484 28.8223Z" fill="white"/>
<path d="M123.495 25.6764C123.264 25.6343 123.017 25.6127 122.759 25.6127C121.938 25.6127 121.303 25.9183 120.856 26.5304C120.467 27.0702 120.272 27.7526 120.272 28.5763V34.0123H117.939L117.961 26.9148C117.961 25.7207 117.931 24.6335 117.873 23.6532H119.906L119.992 25.6354H120.057C120.303 24.9542 120.692 24.4057 121.224 23.9944C121.744 23.6241 122.306 23.4395 122.911 23.4395C123.127 23.4395 123.322 23.4546 123.495 23.4816V25.6764Z" fill="white"/>
<path d="M133.935 28.3419C133.935 28.7544 133.908 29.102 133.85 29.3859H126.846C126.873 30.4094 127.212 31.1922 127.862 31.732C128.452 32.2146 129.216 32.4564 130.153 32.4564C131.19 32.4564 132.136 32.2934 132.987 31.9663L133.353 33.5641C132.358 33.9916 131.184 34.2043 129.83 34.2043C128.201 34.2043 126.922 33.7315 125.991 32.7868C125.062 31.8421 124.597 30.5735 124.597 28.9822C124.597 27.4199 125.029 26.119 125.896 25.0815C126.802 23.9738 128.028 23.4199 129.569 23.4199C131.084 23.4199 132.23 23.9738 133.009 25.0815C133.625 25.9614 133.935 27.0496 133.935 28.3419ZM131.709 27.7449C131.724 27.0626 131.572 26.4731 131.256 25.9754C130.852 25.3352 130.231 25.0156 129.395 25.0156C128.632 25.0156 128.011 25.3276 127.537 25.9538C127.148 26.4515 126.917 27.0486 126.846 27.7438H131.709V27.7449Z" fill="white"/>
<path d="M49.0104 12.0541C48.6588 12.0541 48.3448 11.9935 48.0683 11.8723C47.7936 11.7512 47.576 11.5831 47.4156 11.3681C47.2569 11.1513 47.1715 10.9005 47.1596 10.6155H47.9634C47.9736 10.7708 48.0257 10.9056 48.1195 11.0199C48.2151 11.1326 48.3397 11.2196 48.4933 11.281C48.6469 11.3425 48.8175 11.3732 49.0053 11.3732C49.2118 11.3732 49.3944 11.3373 49.5531 11.2657C49.7135 11.194 49.8389 11.0942 49.9294 10.9662C50.0198 10.8365 50.065 10.6871 50.065 10.5182C50.065 10.3424 50.0198 10.188 49.9294 10.0549C49.8406 9.92003 49.7101 9.81422 49.5377 9.73743C49.367 9.66063 49.1606 9.62224 48.9182 9.62224H48.4754V8.97715H48.9182C49.1128 8.97715 49.2834 8.94217 49.4302 8.8722C49.5787 8.80223 49.6947 8.70495 49.7783 8.58038C49.862 8.45409 49.9038 8.30647 49.9038 8.13752C49.9038 7.9754 49.8671 7.8346 49.7937 7.71514C49.722 7.59398 49.6196 7.49926 49.4865 7.431C49.3551 7.36274 49.1998 7.32861 49.0206 7.32861C48.85 7.32861 48.6904 7.36018 48.5419 7.42332C48.3952 7.48476 48.2757 7.5735 48.1835 7.68955C48.0914 7.80389 48.0419 7.94126 48.0351 8.10168H47.2697C47.2782 7.81839 47.3618 7.56923 47.5205 7.3542C47.681 7.13918 47.8926 6.97108 48.1554 6.84991C48.4182 6.72875 48.71 6.66816 49.0309 6.66816C49.367 6.66816 49.6572 6.73387 49.9012 6.86527C50.147 6.99497 50.3364 7.16819 50.4695 7.38492C50.6043 7.60166 50.6709 7.83887 50.6692 8.09656C50.6709 8.39009 50.589 8.63925 50.4234 8.84404C50.2596 9.04883 50.0411 9.18621 49.7681 9.25618V9.29713C50.1162 9.35004 50.3859 9.48827 50.577 9.71183C50.7698 9.93539 50.8654 10.2127 50.8637 10.5438C50.8654 10.8322 50.7852 11.0907 50.6231 11.3194C50.4627 11.5481 50.2434 11.7281 49.9652 11.8595C49.687 11.9892 49.3688 12.0541 49.0104 12.0541ZM52.9858 12.0695C52.7367 12.0695 52.5114 12.0234 52.31 11.9312C52.1087 11.8374 51.9491 11.7017 51.8313 11.5242C51.7153 11.3467 51.6573 11.1291 51.6573 10.8714C51.6573 10.6496 51.6999 10.467 51.7853 10.3236C51.8706 10.1803 51.9858 10.0668 52.1308 9.98318C52.2759 9.89955 52.438 9.83641 52.6172 9.79375C52.7964 9.75108 52.979 9.71866 53.165 9.69647C53.4005 9.66917 53.5917 9.64698 53.7384 9.62992C53.8852 9.61114 53.9919 9.58128 54.0584 9.54032C54.125 9.49936 54.1582 9.43281 54.1582 9.34065V9.32273C54.1582 9.09917 54.0951 8.92596 53.9688 8.80308C53.8442 8.68021 53.6582 8.61877 53.4108 8.61877C53.1531 8.61877 52.95 8.67594 52.8015 8.79028C52.6548 8.90292 52.5532 9.02835 52.4969 9.16658L51.7776 9.00275C51.8629 8.76383 51.9875 8.57099 52.1513 8.42422C52.3169 8.27575 52.5071 8.16824 52.7222 8.10168C52.9372 8.03342 53.1633 7.99929 53.4005 7.99929C53.5575 7.99929 53.7239 8.01806 53.8997 8.05561C54.0772 8.09144 54.2427 8.158 54.3963 8.25527C54.5516 8.35255 54.6787 8.49163 54.7777 8.67253C54.8767 8.85172 54.9262 9.08467 54.9262 9.37137V11.9824H54.1787V11.4449H54.148C54.0985 11.5438 54.0243 11.6411 53.9253 11.7367C53.8263 11.8322 53.6992 11.9116 53.5439 11.9747C53.3886 12.0379 53.2026 12.0695 52.9858 12.0695ZM53.1522 11.4551C53.3638 11.4551 53.5447 11.4133 53.6949 11.3297C53.8468 11.246 53.962 11.1368 54.0405 11.002C54.1207 10.8655 54.1608 10.7196 54.1608 10.5643V10.0574C54.1335 10.0847 54.0806 10.1103 54.0021 10.1342C53.9253 10.1564 53.8374 10.176 53.7384 10.1931C53.6394 10.2084 53.543 10.2229 53.4492 10.2366C53.3553 10.2485 53.2768 10.2588 53.2137 10.2673C53.0652 10.2861 52.9295 10.3177 52.8066 10.362C52.6855 10.4064 52.5882 10.4704 52.5148 10.554C52.4431 10.6359 52.4073 10.7452 52.4073 10.8817C52.4073 11.0711 52.4773 11.2145 52.6172 11.3117C52.7571 11.4073 52.9355 11.4551 53.1522 11.4551ZM58.4594 8.05049V8.71093H56.7008V11.9824H55.9457V8.05049H58.4594ZM59.2684 13.4569V8.05049H60.0158V8.68789H60.0798C60.1242 8.60597 60.1882 8.51126 60.2718 8.40375C60.3554 8.29623 60.4715 8.20237 60.62 8.12216C60.7684 8.04025 60.9647 7.99929 61.2087 7.99929C61.5261 7.99929 61.8094 8.0795 62.0586 8.23991C62.3078 8.40033 62.5032 8.63157 62.6448 8.93364C62.7882 9.2357 62.8598 9.5992 62.8598 10.0241C62.8598 10.4491 62.789 10.8134 62.6474 11.1172C62.5057 11.4193 62.3112 11.6522 62.0637 11.816C61.8163 11.9782 61.5338 12.0592 61.2164 12.0592C60.9775 12.0592 60.7821 12.0191 60.6302 11.9389C60.48 11.8587 60.3623 11.7648 60.2769 11.6573C60.1916 11.5498 60.1259 11.4542 60.0798 11.3706H60.0337V13.4569H59.2684ZM60.0184 10.0165C60.0184 10.2929 60.0585 10.5353 60.1387 10.7435C60.2189 10.9517 60.335 11.1146 60.4868 11.2324C60.6387 11.3484 60.8247 11.4065 61.0449 11.4065C61.2736 11.4065 61.4647 11.3459 61.6183 11.2247C61.7719 11.1018 61.8879 10.9354 61.9664 10.7255C62.0466 10.5156 62.0868 10.2793 62.0868 10.0165C62.0868 9.75705 62.0475 9.52411 61.969 9.31761C61.8922 9.11112 61.7762 8.94814 61.6209 8.82868C61.4673 8.70922 61.2753 8.64949 61.0449 8.64949C60.823 8.64949 60.6353 8.70666 60.4817 8.821C60.3298 8.93534 60.2146 9.09491 60.1361 9.29969C60.0576 9.50448 60.0184 9.7434 60.0184 10.0165ZM64.0674 13.4569C63.9531 13.4569 63.849 13.4475 63.7551 13.4287C63.6613 13.4117 63.5913 13.3929 63.5452 13.3724L63.7295 12.7453C63.8695 12.7828 63.9941 12.799 64.1033 12.7939C64.2125 12.7888 64.3089 12.7478 64.3925 12.671C64.4779 12.5942 64.553 12.4688 64.6178 12.2947L64.7125 12.0336L63.2739 8.05049H64.093L65.0888 11.1018H65.1298L66.1256 8.05049H66.9473L65.3269 12.5072C65.2518 12.712 65.1562 12.8852 65.0402 13.0268C64.9241 13.1702 64.7859 13.2777 64.6255 13.3494C64.4651 13.4211 64.2791 13.4569 64.0674 13.4569ZM67.4336 10.9431H68.217C68.2272 11.1035 68.2997 11.2273 68.4346 11.3143C68.5711 11.4013 68.7477 11.4449 68.9644 11.4449C69.1846 11.4449 69.3723 11.3979 69.5276 11.3041C69.6829 11.2085 69.7606 11.0609 69.7606 10.8612C69.7606 10.7417 69.7307 10.6376 69.671 10.5489C69.6129 10.4585 69.5302 10.3885 69.4227 10.339C69.3168 10.2895 69.1914 10.2648 69.0464 10.2648H68.4064V9.66319H69.0464C69.2631 9.66319 69.4252 9.6137 69.5327 9.51472C69.6402 9.41574 69.694 9.29201 69.694 9.14354C69.694 8.98313 69.636 8.85428 69.5199 8.75701C69.4056 8.65802 69.246 8.60853 69.0412 8.60853C68.833 8.60853 68.6598 8.65546 68.5216 8.74933C68.3834 8.84148 68.3108 8.96094 68.304 9.10771H67.5309C67.536 8.88756 67.6026 8.69472 67.7306 8.52918C67.8603 8.36193 68.0344 8.23223 68.2528 8.14008C68.473 8.04622 68.723 7.99929 69.0028 7.99929C69.2947 7.99929 69.5472 8.04622 69.7606 8.14008C69.9739 8.23394 70.1386 8.36364 70.2546 8.52918C70.3724 8.69472 70.4312 8.885 70.4312 9.10003C70.4312 9.31676 70.3664 9.49424 70.2367 9.63248C70.1087 9.769 69.9415 9.86713 69.735 9.92686V9.96782C69.8868 9.97806 70.0217 10.0241 70.1394 10.106C70.2572 10.188 70.3493 10.2963 70.4159 10.4311C70.4824 10.566 70.5157 10.7187 70.5157 10.8894C70.5157 11.13 70.4492 11.3382 70.316 11.514C70.1846 11.6897 70.002 11.8254 69.7682 11.921C69.5361 12.0148 69.2708 12.0618 68.9721 12.0618C68.682 12.0618 68.4218 12.0166 68.1914 11.9261C67.9627 11.834 67.7809 11.7043 67.6461 11.537C67.513 11.3698 67.4422 11.1718 67.4336 10.9431ZM72.0561 10.9098L73.7891 8.05049H74.6134V11.9824H73.8634V9.1205L72.138 11.9824H71.3061V8.05049H72.0561V10.9098ZM75.1548 8.71093V8.05049H78.4724V8.71093H77.1899V11.9824H76.4424V8.71093H75.1548ZM79.8579 9.40209H80.9996C81.4809 9.40209 81.8512 9.52155 82.1106 9.76047C82.37 9.99939 82.4997 10.3074 82.4997 10.6846C82.4997 10.9303 82.4417 11.1513 82.3256 11.3476C82.2096 11.5438 82.0398 11.6991 81.8162 11.8135C81.5926 11.9261 81.3204 11.9824 80.9996 11.9824H79.2819V8.05049H80.032V11.322H80.9996C81.2197 11.322 81.4006 11.2648 81.5423 11.1505C81.6839 11.0344 81.7548 10.8868 81.7548 10.7076C81.7548 10.5182 81.6839 10.3637 81.5423 10.2443C81.4006 10.1231 81.2197 10.0625 80.9996 10.0625H79.8579V9.40209ZM85.2656 11.9824V8.05049H86.8962C87.3399 8.05049 87.6915 8.1452 87.9509 8.33463C88.2103 8.52235 88.34 8.77748 88.34 9.10003C88.34 9.33041 88.2666 9.51302 88.1198 9.64783C87.9731 9.78265 87.7785 9.8731 87.5362 9.91918C87.712 9.93966 87.8732 9.99256 88.02 10.0779C88.1668 10.1615 88.2845 10.2741 88.3733 10.4158C88.4637 10.5574 88.5089 10.7264 88.5089 10.9226C88.5089 11.1308 88.4552 11.3152 88.3477 11.4756C88.2401 11.6343 88.084 11.7589 87.8792 11.8493C87.6761 11.9381 87.4312 11.9824 87.1445 11.9824H85.2656ZM85.9849 11.3425H87.1445C87.334 11.3425 87.4824 11.2972 87.5899 11.2068C87.6975 11.1163 87.7512 10.9935 87.7512 10.8382C87.7512 10.6556 87.6975 10.5122 87.5899 10.4081C87.4824 10.3023 87.334 10.2494 87.1445 10.2494H85.9849V11.3425ZM85.9849 9.68879H86.9039C87.0473 9.68879 87.1701 9.66831 87.2725 9.62736C87.3766 9.5864 87.456 9.52837 87.5106 9.45329C87.5669 9.37649 87.5951 9.28604 87.5951 9.18194C87.5951 9.03006 87.5328 8.91145 87.4082 8.82612C87.2836 8.74079 87.113 8.69813 86.8962 8.69813H85.9849V9.68879Z" fill="white"/>
</svg>
