<svg width="11" height="11" viewBox="0 0 11 11" fill="none" xmlns="http://www.w3.org/2000/svg">
<path d="M0.289062 9.01367C-0.09375 9.38867 -0.101562 10.0762 0.296875 10.4746C0.695312 10.873 1.38281 10.8574 1.75781 10.4824L5.38281 6.85742L9.00781 10.4746C9.39844 10.8652 10.0703 10.873 10.4688 10.4668C10.8672 10.0684 10.8672 9.39648 10.4766 9.00586L6.85938 5.38867L10.4766 1.76367C10.8672 1.37305 10.8672 0.701172 10.4688 0.302734C10.0703 -0.103516 9.39844 -0.0957031 9.00781 0.294922L5.38281 3.91211L1.75781 0.287109C1.38281 -0.0878906 0.695312 -0.103516 0.296875 0.294922C-0.101562 0.693359 -0.09375 1.38086 0.289062 1.76367L3.91406 5.38867L0.289062 9.01367Z" fill="#9F9F9F"/>
</svg>
